<mxfile host="app.diagrams.net" modified="2024-01-20T23:43:09.725Z" agent="Mozilla/5.0 (Windows NT 10.0; Win64; x64; rv:121.0) Gecko/20100101 Firefox/121.0" etag="F2tM4fwtDue81Cl1FO0q" version="22.1.21" type="device">
  <diagram name="Page-1" id="lWWumr3RuOW-mE886H5n">
    <mxGraphModel dx="1002" dy="625" grid="1" gridSize="10" guides="1" tooltips="1" connect="1" arrows="1" fold="1" page="1" pageScale="1" pageWidth="1200" pageHeight="1920" math="0" shadow="0">
      <root>
        <mxCell id="0" />
        <mxCell id="1" parent="0" />
        <mxCell id="s8e05Jx1DxTzhazziolU-11" style="edgeStyle=orthogonalEdgeStyle;rounded=0;orthogonalLoop=1;jettySize=auto;html=1;exitX=1;exitY=0.5;exitDx=0;exitDy=0;entryX=0;entryY=0.5;entryDx=0;entryDy=0;" edge="1" parent="1" source="s8e05Jx1DxTzhazziolU-2" target="s8e05Jx1DxTzhazziolU-5">
          <mxGeometry relative="1" as="geometry" />
        </mxCell>
        <mxCell id="s8e05Jx1DxTzhazziolU-2" value="SEC API" style="rounded=1;whiteSpace=wrap;html=1;" vertex="1" parent="1">
          <mxGeometry x="20" y="300" width="110" height="60" as="geometry" />
        </mxCell>
        <mxCell id="s8e05Jx1DxTzhazziolU-6" value="&lt;div align=&quot;left&quot; style=&quot;font-size: 11px;&quot;&gt;&lt;font style=&quot;font-size: 11px;&quot;&gt;num.txt&lt;/font&gt;&lt;/div&gt;&lt;div align=&quot;left&quot; style=&quot;font-size: 11px;&quot;&gt;&lt;font style=&quot;font-size: 11px;&quot;&gt;sub.txt&lt;/font&gt;&lt;/div&gt;&lt;div align=&quot;left&quot; style=&quot;font-size: 11px;&quot;&gt;&lt;font style=&quot;font-size: 11px;&quot;&gt;tag.txt&lt;/font&gt;&lt;/div&gt;&lt;div align=&quot;left&quot; style=&quot;font-size: 11px;&quot;&gt;&lt;font style=&quot;font-size: 11px;&quot;&gt;pre.txt&lt;/font&gt;&lt;/div&gt;&lt;div align=&quot;left&quot; style=&quot;font-size: 11px;&quot;&gt;&lt;font style=&quot;font-size: 11px;&quot;&gt;readme&lt;font style=&quot;font-size: 11px;&quot;&gt;&lt;br&gt;&lt;/font&gt;&lt;/font&gt;&lt;/div&gt;" style="rounded=0;whiteSpace=wrap;html=1;align=left;" vertex="1" parent="1">
          <mxGeometry x="190" y="350" width="70" height="90" as="geometry" />
        </mxCell>
        <mxCell id="s8e05Jx1DxTzhazziolU-12" style="edgeStyle=orthogonalEdgeStyle;rounded=0;orthogonalLoop=1;jettySize=auto;html=1;exitX=1;exitY=0.5;exitDx=0;exitDy=0;entryX=0;entryY=0.5;entryDx=0;entryDy=0;" edge="1" parent="1" source="s8e05Jx1DxTzhazziolU-5" target="s8e05Jx1DxTzhazziolU-7">
          <mxGeometry relative="1" as="geometry" />
        </mxCell>
        <mxCell id="s8e05Jx1DxTzhazziolU-5" value="&lt;div&gt;Extract to /extracted&lt;/div&gt;" style="rounded=1;whiteSpace=wrap;html=1;" vertex="1" parent="1">
          <mxGeometry x="160" y="300" width="120" height="60" as="geometry" />
        </mxCell>
        <mxCell id="s8e05Jx1DxTzhazziolU-32" style="edgeStyle=orthogonalEdgeStyle;rounded=0;orthogonalLoop=1;jettySize=auto;html=1;entryX=0;entryY=0.5;entryDx=0;entryDy=0;" edge="1" parent="1" source="s8e05Jx1DxTzhazziolU-7" target="s8e05Jx1DxTzhazziolU-10">
          <mxGeometry relative="1" as="geometry" />
        </mxCell>
        <mxCell id="s8e05Jx1DxTzhazziolU-7" value="&lt;div&gt;read with pandas&lt;/div&gt;&lt;div&gt;create table in pgsql&lt;/div&gt;&lt;div&gt;insert into sql&lt;/div&gt;&lt;div&gt;(all datatype varchar)&lt;br&gt;&lt;/div&gt;" style="rounded=0;whiteSpace=wrap;html=1;" vertex="1" parent="1">
          <mxGeometry x="365" y="300" width="120" height="60" as="geometry" />
        </mxCell>
        <mxCell id="s8e05Jx1DxTzhazziolU-19" value="" style="rounded=0;whiteSpace=wrap;html=1;fillColor=none;" vertex="1" parent="1">
          <mxGeometry x="350" y="270" width="150" height="200" as="geometry" />
        </mxCell>
        <mxCell id="s8e05Jx1DxTzhazziolU-14" value="Extract" style="text;html=1;strokeColor=none;fillColor=none;align=center;verticalAlign=middle;whiteSpace=wrap;rounded=0;" vertex="1" parent="1">
          <mxGeometry x="120" y="230" width="60" height="30" as="geometry" />
        </mxCell>
        <mxCell id="s8e05Jx1DxTzhazziolU-15" value="Load" style="text;html=1;strokeColor=none;fillColor=none;align=center;verticalAlign=middle;whiteSpace=wrap;rounded=0;" vertex="1" parent="1">
          <mxGeometry x="395" y="230" width="60" height="30" as="geometry" />
        </mxCell>
        <mxCell id="s8e05Jx1DxTzhazziolU-16" value="Transform" style="text;html=1;strokeColor=none;fillColor=none;align=center;verticalAlign=middle;whiteSpace=wrap;rounded=0;" vertex="1" parent="1">
          <mxGeometry x="597.5" y="230" width="60" height="30" as="geometry" />
        </mxCell>
        <mxCell id="s8e05Jx1DxTzhazziolU-17" value="" style="rounded=0;whiteSpace=wrap;html=1;fillColor=none;" vertex="1" parent="1">
          <mxGeometry x="10" y="270" width="280" height="200" as="geometry" />
        </mxCell>
        <mxCell id="s8e05Jx1DxTzhazziolU-21" value="&lt;div align=&quot;left&quot; style=&quot;font-size: 11px;&quot;&gt;&lt;font style=&quot;font-size: 11px;&quot;&gt;delete cols&lt;/font&gt;&lt;/div&gt;&lt;div align=&quot;left&quot; style=&quot;font-size: 11px;&quot;&gt;&lt;font style=&quot;font-size: 11px;&quot;&gt;change dtype&lt;/font&gt;&lt;/div&gt;&lt;div align=&quot;left&quot; style=&quot;font-size: 11px;&quot;&gt;&lt;font style=&quot;font-size: 11px;&quot;&gt;make views&lt;/font&gt;&lt;/div&gt;&lt;div align=&quot;left&quot; style=&quot;font-size: 11px;&quot;&gt;&lt;font style=&quot;font-size: 11px;&quot;&gt;make startschema&lt;font style=&quot;font-size: 11px;&quot;&gt;&lt;br&gt;&lt;/font&gt;&lt;/font&gt;&lt;/div&gt;" style="rounded=0;whiteSpace=wrap;html=1;align=left;" vertex="1" parent="1">
          <mxGeometry x="570" y="350" width="85" height="90" as="geometry" />
        </mxCell>
        <mxCell id="s8e05Jx1DxTzhazziolU-20" value="" style="rounded=0;whiteSpace=wrap;html=1;fillColor=none;" vertex="1" parent="1">
          <mxGeometry x="555" y="270" width="145" height="200" as="geometry" />
        </mxCell>
        <mxCell id="s8e05Jx1DxTzhazziolU-10" value="Tranformation" style="rounded=1;whiteSpace=wrap;html=1;" vertex="1" parent="1">
          <mxGeometry x="567.5" y="300" width="120" height="60" as="geometry" />
        </mxCell>
      </root>
    </mxGraphModel>
  </diagram>
</mxfile>
